<?xml version="1.0" encoding="iso-8859-1"?>
<!-- Generator: Adobe Illustrator 16.0.0, SVG Export Plug-In . SVG Version: 6.00 Build 0)  -->
<!DOCTYPE svg PUBLIC "-//W3C//DTD SVG 1.1//EN" "http://www.w3.org/Graphics/SVG/1.1/DTD/svg11.dtd">
<svg xmlns="http://www.w3.org/2000/svg" xmlns:xlink="http://www.w3.org/1999/xlink" version="1.1" id="Capa_1" x="0px" y="0px" width="512px" height="512px" viewBox="0 0 638.44 638.44" style="enable-background:new 0 0 638.44 638.44;" xml:space="preserve">
<g>
	<g id="_x31_7">
		<g>
			<path d="M601.738,151.908C579.985,146.063,125.866,13.369,88.492,3.671C40.504-14.937,13.824,43.247,13.824,43.221     c-2.359,27.886,3.066,500.928,1.31,533.164c-1.31,23.614,20.862,55.589,68.483,21.569c9.566-6.866,142.785-195.7,142.942-195.937     c3.539,4.823,8.282,11.322,14.126,19.343c42.982,58.733,136.182,186.134,136.182,186.134     c24.662,33.679,71.942,40.991,105.646,16.381l15.254-11.191c33.679-24.688,41.017-71.969,16.354-105.674L361.824,298.86     l0.078-1.101c0,0,226.653-63.897,234.883-66.544C638.771,217.902,628.89,159.115,601.738,151.908z" fill="#D80027"/>
		</g>
	</g>
</g>
<g>
</g>
<g>
</g>
<g>
</g>
<g>
</g>
<g>
</g>
<g>
</g>
<g>
</g>
<g>
</g>
<g>
</g>
<g>
</g>
<g>
</g>
<g>
</g>
<g>
</g>
<g>
</g>
<g>
</g>
</svg>
